<svg width="25" height="24" viewBox="0 0 25 24" fill="none" xmlns="http://www.w3.org/2000/svg">
<path d="M20 3.75H5C3.75736 3.75 2.75 4.75736 2.75 6V19.5C2.75 20.7426 3.75736 21.75 5 21.75H20C21.2426 21.75 22.25 20.7426 22.25 19.5V6C22.25 4.75736 21.2426 3.75 20 3.75Z" stroke="#5C5C5C" stroke-width="2" stroke-linejoin="round"/>
<path d="M14.375 12C14.9963 12 15.5 11.4963 15.5 10.875C15.5 10.2537 14.9963 9.75 14.375 9.75C13.7537 9.75 13.25 10.2537 13.25 10.875C13.25 11.4963 13.7537 12 14.375 12Z" fill="#5C5C5C"/>
<path d="M18.125 12C18.7463 12 19.25 11.4963 19.25 10.875C19.25 10.2537 18.7463 9.75 18.125 9.75C17.5037 9.75 17 10.2537 17 10.875C17 11.4963 17.5037 12 18.125 12Z" fill="#5C5C5C"/>
<path d="M14.375 15.75C14.9963 15.75 15.5 15.2463 15.5 14.625C15.5 14.0037 14.9963 13.5 14.375 13.5C13.7537 13.5 13.25 14.0037 13.25 14.625C13.25 15.2463 13.7537 15.75 14.375 15.75Z" fill="#5C5C5C"/>
<path d="M18.125 15.75C18.7463 15.75 19.25 15.2463 19.25 14.625C19.25 14.0037 18.7463 13.5 18.125 13.5C17.5037 13.5 17 14.0037 17 14.625C17 15.2463 17.5037 15.75 18.125 15.75Z" fill="#5C5C5C"/>
<path d="M6.875 15.75C7.49632 15.75 8 15.2463 8 14.625C8 14.0037 7.49632 13.5 6.875 13.5C6.25368 13.5 5.75 14.0037 5.75 14.625C5.75 15.2463 6.25368 15.75 6.875 15.75Z" fill="#5C5C5C"/>
<path d="M10.625 15.75C11.2463 15.75 11.75 15.2463 11.75 14.625C11.75 14.0037 11.2463 13.5 10.625 13.5C10.0037 13.5 9.5 14.0037 9.5 14.625C9.5 15.2463 10.0037 15.75 10.625 15.75Z" fill="#5C5C5C"/>
<path d="M6.875 19.5C7.49632 19.5 8 18.9963 8 18.375C8 17.7537 7.49632 17.25 6.875 17.25C6.25368 17.25 5.75 17.7537 5.75 18.375C5.75 18.9963 6.25368 19.5 6.875 19.5Z" fill="#5C5C5C"/>
<path d="M10.625 19.5C11.2463 19.5 11.75 18.9963 11.75 18.375C11.75 17.7537 11.2463 17.25 10.625 17.25C10.0037 17.25 9.5 17.7537 9.5 18.375C9.5 18.9963 10.0037 19.5 10.625 19.5Z" fill="#5C5C5C"/>
<path d="M14.375 19.5C14.9963 19.5 15.5 18.9963 15.5 18.375C15.5 17.7537 14.9963 17.25 14.375 17.25C13.7537 17.25 13.25 17.7537 13.25 18.375C13.25 18.9963 13.7537 19.5 14.375 19.5Z" fill="#5C5C5C"/>
<path d="M6.5 2.25V3.75M18.5 2.25V3.75" stroke="#5C5C5C" stroke-width="2" stroke-linecap="round" stroke-linejoin="round"/>
<path d="M22.25 7.5H2.75" stroke="#5C5C5C" stroke-width="2" stroke-linejoin="round"/>
</svg>
