<svg width="13" height="22" viewBox="0 0 13 22" fill="none" xmlns="http://www.w3.org/2000/svg">
<path fill-rule="evenodd" clip-rule="evenodd" d="M11.8744 0.746942C11.2886 0.161156 10.3388 0.161156 9.75306 0.746942L0.563141 9.93686C0.562322 9.93768 0.561503 9.9385 0.560685 9.93932C0.477162 10.0228 0.405548 10.1138 0.345843 10.21C-0.0132037 10.7885 0.0584071 11.5584 0.560675 12.0607C0.562338 12.0623 0.564003 12.064 0.565671 12.0656L9.75307 21.253C10.3389 21.8388 11.2886 21.8388 11.8744 21.253C12.4602 20.6672 12.4602 19.7175 11.8744 19.1317L3.74267 11L11.8744 2.86826C12.4602 2.28248 12.4602 1.33273 11.8744 0.746942Z" fill="#5C5C5C"/>
</svg>
