<svg width="10" height="10" viewBox="0 0 10 10" fill="none" xmlns="http://www.w3.org/2000/svg">
<g clip-path="url(#clip0_5_6)">
<path fill-rule="evenodd" clip-rule="evenodd" d="M8.23461 2.26545C8.23461 1.98931 8.01075 1.76545 7.73461 1.76545C7.45847 1.76545 7.23461 1.98931 7.23461 2.26545L7.23461 3.1607C7.17411 3.09814 7.10887 3.03182 7.03855 2.96151C6.53159 2.45454 5.88568 2.10929 5.18249 1.96942C4.47931 1.82955 3.75045 1.90134 3.08806 2.17571C2.42568 2.45007 1.85953 2.9147 1.46121 3.51083C1.06289 4.10696 0.850292 4.80781 0.850292 5.52477C0.850292 6.24173 1.06289 6.94258 1.46121 7.53871C1.85953 8.13484 2.42568 8.59947 3.08806 8.87383C3.75045 9.1482 4.47931 9.21999 5.18249 9.08012C5.88567 8.94024 6.53159 8.595 7.03855 8.08803C7.23382 7.89277 7.23382 7.57619 7.03855 7.38093C6.84329 7.18566 6.52671 7.18566 6.33145 7.38092C5.96433 7.74804 5.4966 7.99804 4.9874 8.09933C4.4782 8.20062 3.9504 8.14863 3.47075 7.94995C2.99109 7.75127 2.58112 7.41482 2.29268 6.98314C2.00425 6.55146 1.85029 6.04395 1.85029 5.52477C1.85029 5.00559 2.00425 4.49808 2.29268 4.0664C2.58112 3.63472 2.99109 3.29827 3.47075 3.09959C3.9504 2.90091 4.4782 2.84892 4.9874 2.95021C5.4966 3.05149 5.96433 3.3015 6.33145 3.66861C6.44748 3.78465 6.54605 3.8863 6.62955 3.97516H5.5249C5.24876 3.97516 5.0249 4.19901 5.0249 4.47516C5.0249 4.7513 5.24876 4.97516 5.5249 4.97516L7.73461 4.97516C8.01075 4.97516 8.23461 4.7513 8.23461 4.47516L8.23461 2.26545Z" fill="#A5A5A5" fill-opacity="0.5"/>
</g>
<defs>
<clipPath id="clip0_5_6">
<rect width="10" height="10" fill="white"/>
</clipPath>
</defs>
</svg>
